<svg xmlns="http://www.w3.org/2000/svg" viewBox="0 0 449.78 63.66"><defs><style>.cls-1{fill:#727477;}.cls-2{fill:#093453;}.cls-3{fill:#d13038;}.cls-4{fill:#009dd2;}</style></defs><g id="Layer_2" data-name="Layer 2"><g id="Layer_1-2" data-name="Layer 1"><path class="cls-1" d="M216.3,21.26V12.32h2.91v9.16c0,3.44,1.27,4.59,3.2,4.59s3.25-1.15,3.25-4.59V12.32h2.8v8.94c0,5.25-2.32,7.32-6.05,7.32S216.3,26.51,216.3,21.26Z"/><path class="cls-1" d="M228.88,26.66a1.86,1.86,0,1,1,1.85,1.92A1.86,1.86,0,0,1,228.88,26.66Z"/><path class="cls-1" d="M233.83,26.24l1.57-1.9a6.33,6.33,0,0,0,4.27,1.73c1.76,0,2.74-.81,2.74-2s-1-1.68-2.47-2.29l-2.17-1a4.55,4.55,0,0,1-3.23-4.22c0-2.56,2.25-4.54,5.37-4.54a7.19,7.19,0,0,1,5,2l-1.56,1.9a5.25,5.25,0,0,0-3.4-1.34c-1.48,0-2.44.68-2.44,1.83s1.2,1.66,2.52,2.22l2.15.88c1.9.81,3.22,2,3.22,4.32,0,2.59-2.15,4.76-5.76,4.76A8,8,0,0,1,233.83,26.24Z"/><path class="cls-1" d="M246.21,26.66a1.86,1.86,0,1,1,1.86,1.92A1.87,1.87,0,0,1,246.21,26.66Z"/><path class="cls-1" d="M265,27.55a6.85,6.85,0,0,0,2.49-2.88,10.22,10.22,0,0,0,.88-4.44,10,10,0,0,0-.88-4.42A6.55,6.55,0,0,0,261.28,12a6.73,6.73,0,0,0-3.66,1,6.65,6.65,0,0,0-2.47,2.81,9.76,9.76,0,0,0-.9,4.42,9.94,9.94,0,0,0,.9,4.44,6.68,6.68,0,0,0,2.47,2.88,6.51,6.51,0,0,0,3.66,1,6.61,6.61,0,0,0,3.69-1m-6.69-3.05a7.18,7.18,0,0,1-1.13-4.27A7,7,0,0,1,258.28,16a3.75,3.75,0,0,1,6,0,7.06,7.06,0,0,1,1.12,4.23,7.25,7.25,0,0,1-1.12,4.27,3.61,3.61,0,0,1-6,0m23.05,3.79V18.52h2.34V16.3h-2.34V15c0-1.34.51-2,1.51-2a2.92,2.92,0,0,1,1.3.3l.53-2.1a4.63,4.63,0,0,0-.95-.3,7,7,0,0,0-1.24-.12,3.53,3.53,0,0,0-3,1.2,5,5,0,0,0-.93,3.1V16.3H274V15.25a2.26,2.26,0,0,1,.44-1.52,1.47,1.47,0,0,1,1.19-.51,4,4,0,0,1,.83.07,2.4,2.4,0,0,1,.69.25l.54-2.1a5.51,5.51,0,0,0-2.35-.44,3.85,3.85,0,0,0-3.15,1.19,4.65,4.65,0,0,0-1,3.06V16.3l-1.61.12v2.1h1.61v9.77H274V18.52h4.54v9.77Zm6.64-12h-2.81v12H288Zm-.17-2.54a1.52,1.52,0,0,0,.46-1.18,1.46,1.46,0,0,0-.46-1.14,1.68,1.68,0,0,0-1.22-.44,1.65,1.65,0,0,0-1.22.44,1.47,1.47,0,0,0-.47,1.14,1.53,1.53,0,0,0,.47,1.18,1.69,1.69,0,0,0,1.22.44,1.72,1.72,0,0,0,1.22-.44M298,28.21a5.58,5.58,0,0,0,1.86-1.1l-1.15-1.85a6.09,6.09,0,0,1-1.12.71,2.86,2.86,0,0,1-1.34.31,2.77,2.77,0,0,1-2.3-1.1,4.32,4.32,0,0,1-.9-2.88,4.35,4.35,0,0,1,.93-2.9,2.89,2.89,0,0,1,2.34-1.1,2.47,2.47,0,0,1,1.05.22,5.44,5.44,0,0,1,.95.66l1.37-1.83a7.2,7.2,0,0,0-1.51-1,4.68,4.68,0,0,0-2-.39,6.12,6.12,0,0,0-2.95.74A5.85,5.85,0,0,0,291,18.88a6.52,6.52,0,0,0-.83,3.42,6.77,6.77,0,0,0,.78,3.37A5.12,5.12,0,0,0,293,27.82a5.55,5.55,0,0,0,2.93.76,5.88,5.88,0,0,0,2.05-.37"/><path class="cls-1" d="M308.36,28.21a8.19,8.19,0,0,0,1.9-.93l-.95-1.75a6.1,6.1,0,0,1-1.32.63,4.19,4.19,0,0,1-1.46.25,3.46,3.46,0,0,1-2.4-.88A3.87,3.87,0,0,1,303,23.06h7.62a6.64,6.64,0,0,0,.12-1.37,7.69,7.69,0,0,0-.56-3,4.54,4.54,0,0,0-1.66-2,5.32,5.32,0,0,0-5.4.05,5.44,5.44,0,0,0-2.05,2.17,6.75,6.75,0,0,0-.81,3.37,6.88,6.88,0,0,0,.78,3.37,5.14,5.14,0,0,0,2.13,2.15,6,6,0,0,0,3,.76,6.56,6.56,0,0,0,2.2-.37M304,18.93a2.58,2.58,0,0,1,1.85-.75,2.22,2.22,0,0,1,1.84.78,3.53,3.53,0,0,1,.61,2.2H303a3.54,3.54,0,0,1,1-2.23m20.8,8.89a5.5,5.5,0,0,0,2.1-2.15,6.57,6.57,0,0,0,.81-3.37,6.81,6.81,0,0,0-.81-3.42,5.91,5.91,0,0,0-2.1-2.14A5.59,5.59,0,0,0,322,16a5.48,5.48,0,0,0-2.78.74,5.91,5.91,0,0,0-2.1,2.14,6.81,6.81,0,0,0-.81,3.42,6.57,6.57,0,0,0,.81,3.37,5.5,5.5,0,0,0,2.1,2.15,5.31,5.31,0,0,0,2.78.76,5.41,5.41,0,0,0,2.81-.76m-4.86-2.64a4.91,4.91,0,0,1-.76-2.88,5,5,0,0,1,.76-2.9A2.34,2.34,0,0,1,322,18.3a2.41,2.41,0,0,1,2.08,1.1,5,5,0,0,1,.76,2.9,4.91,4.91,0,0,1-.76,2.88,2.39,2.39,0,0,1-2.08,1.1,2.31,2.31,0,0,1-2.05-1.1"/><path class="cls-1" d="M333.07,28.29V18.52h2.34V16.3h-2.34V15c0-1.34.51-2,1.51-2a3.17,3.17,0,0,1,1.32.3l.54-2.1a4.21,4.21,0,0,0-1-.3,7,7,0,0,0-1.22-.12,3.57,3.57,0,0,0-3.05,1.2,5.05,5.05,0,0,0-.93,3.1V16.3l-1.61.12v2.1h1.61v9.77Z"/><path class="cls-1" d="M219.23,52.66V46.8h2.3a8.16,8.16,0,0,0,3.1-.57,4.79,4.79,0,0,0,2.17-1.71,4.87,4.87,0,0,0,.81-2.9,4.72,4.72,0,0,0-.81-2.93,4.5,4.5,0,0,0-2.19-1.54,9.72,9.72,0,0,0-3.18-.47h-5v16Zm0-13.7h2a5.29,5.29,0,0,1,2.71.56,2.31,2.31,0,0,1,.91,2.1c0,1.93-1.18,2.9-3.52,2.9h-2.08Zm17.32,13.62a8.39,8.39,0,0,0,1.9-.93l-.95-1.75a6.6,6.6,0,0,1-1.32.63,4.19,4.19,0,0,1-1.46.25,3.45,3.45,0,0,1-2.4-.88,3.93,3.93,0,0,1-1.15-2.47h7.62a6,6,0,0,0,.12-1.37,7.51,7.51,0,0,0-.56-3,4.41,4.41,0,0,0-1.66-2,5,5,0,0,0-2.73-.71,5.07,5.07,0,0,0-2.66.76,5.53,5.53,0,0,0-2.06,2.17,7.58,7.58,0,0,0,0,6.74,5.11,5.11,0,0,0,2.12,2.15,6,6,0,0,0,3,.76,6.56,6.56,0,0,0,2.2-.37m-4.38-9.28a2.6,2.6,0,0,1,1.86-.75,2.19,2.19,0,0,1,1.83.78,3.47,3.47,0,0,1,.61,2.2h-5.32a3.53,3.53,0,0,1,1-2.23"/><path class="cls-1" d="M243.8,52.66V45.33a4.35,4.35,0,0,1,1.34-1.93,2.58,2.58,0,0,1,1.49-.54,5.25,5.25,0,0,1,.66,0,4.65,4.65,0,0,1,.59.15l.48-2.44a3.09,3.09,0,0,0-1.36-.25,3.27,3.27,0,0,0-1.86.61,5,5,0,0,0-1.54,1.81h-.09l-.2-2.12H241v12Z"/><path class="cls-1" d="M256.15,51.85a3.34,3.34,0,0,0,1.2-2.61,2.94,2.94,0,0,0-.51-1.81,4.58,4.58,0,0,0-1.32-1.12,11.07,11.07,0,0,0-1.61-.71,13.63,13.63,0,0,1-1.71-.71,1.15,1.15,0,0,1-.73-1.07,1.26,1.26,0,0,1,.43-1,2.11,2.11,0,0,1,1.35-.36,3.84,3.84,0,0,1,1.37.27,6.8,6.8,0,0,1,1.27.75l1.29-1.71a9.72,9.72,0,0,0-1.73-1,5.62,5.62,0,0,0-2.28-.44,4.74,4.74,0,0,0-3.17,1A3.25,3.25,0,0,0,248.83,44a2.77,2.77,0,0,0,.49,1.66,3.31,3.31,0,0,0,1.27,1.1,9.66,9.66,0,0,0,1.53.73c.42.18.83.32,1.23.49a4.1,4.1,0,0,1,1,.59,1.09,1.09,0,0,1,.37.85,1.28,1.28,0,0,1-.47,1,2.13,2.13,0,0,1-1.44.41,4.13,4.13,0,0,1-1.71-.36,8.47,8.47,0,0,1-1.61-1l-1.32,1.81a8.61,8.61,0,0,0,2.1,1.17,6.69,6.69,0,0,0,2.45.49,5,5,0,0,0,3.46-1.1m10.82.34a5.5,5.5,0,0,0,2.1-2.15,6.57,6.57,0,0,0,.81-3.37,6.81,6.81,0,0,0-.81-3.42,5.91,5.91,0,0,0-2.1-2.14,5.59,5.59,0,0,0-2.81-.74,5.48,5.48,0,0,0-2.78.74,5.91,5.91,0,0,0-2.1,2.14,6.81,6.81,0,0,0-.81,3.42,6.57,6.57,0,0,0,.81,3.37,5.5,5.5,0,0,0,2.1,2.15,5.22,5.22,0,0,0,2.78.76,5.32,5.32,0,0,0,2.81-.76m-4.86-2.64a4.91,4.91,0,0,1-.76-2.88,5,5,0,0,1,.76-2.9,2.31,2.31,0,0,1,2.05-1.1,2.39,2.39,0,0,1,2.08,1.1,5,5,0,0,1,.76,2.9,4.91,4.91,0,0,1-.76,2.88,2.39,2.39,0,0,1-2.08,1.1,2.31,2.31,0,0,1-2.05-1.1m12.75,3.11V44.28a9.67,9.67,0,0,1,1.36-1.12,2.51,2.51,0,0,1,1.37-.37,1.65,1.65,0,0,1,1.44.61,3.69,3.69,0,0,1,.44,2.1v7.16h2.81V45.13a6,6,0,0,0-.88-3.51,3.18,3.18,0,0,0-2.81-1.25,4.38,4.38,0,0,0-2.17.56,9.47,9.47,0,0,0-1.76,1.35h-.1l-.19-1.61h-2.32v12Zm13.06,0V44.28a9.16,9.16,0,0,1,1.37-1.12,2.49,2.49,0,0,1,1.37-.37,1.66,1.66,0,0,1,1.44.61,3.77,3.77,0,0,1,.44,2.1v7.16h2.8V45.13a6,6,0,0,0-.88-3.51,3.17,3.17,0,0,0-2.8-1.25,4.39,4.39,0,0,0-2.18.56,9.47,9.47,0,0,0-1.76,1.35h-.09l-.2-1.61h-2.32v12Zm17.58-.08a8.67,8.67,0,0,0,1.91-.92l-1-1.76a6.1,6.1,0,0,1-1.32.63,4.19,4.19,0,0,1-1.46.25,3.42,3.42,0,0,1-2.39-.88,3.83,3.83,0,0,1-1.15-2.47h7.62a6.64,6.64,0,0,0,.12-1.37,7.69,7.69,0,0,0-.56-3,4.54,4.54,0,0,0-1.66-2,5,5,0,0,0-2.74-.71,5.1,5.1,0,0,0-2.66.76,5.51,5.51,0,0,0-2.05,2.17,7.5,7.5,0,0,0,0,6.74,5.11,5.11,0,0,0,2.12,2.15,5.87,5.87,0,0,0,3,.76,6.56,6.56,0,0,0,2.2-.37m-4.37-9.28a2.6,2.6,0,0,1,1.86-.75,2.21,2.21,0,0,1,1.83.78,3.52,3.52,0,0,1,.61,2.19H300.1a3.59,3.59,0,0,1,1-2.22m12.43,9.58a3.5,3.5,0,0,0,.61-.17l-.37-2.11a.88.88,0,0,1-.24,0,.65.65,0,0,1-.2,0,.53.53,0,0,1-.41-.22,1,1,0,0,1-.2-.7V35.41h-2.81V49.58a4.26,4.26,0,0,0,.64,2.47,2.32,2.32,0,0,0,2.1.9,5.92,5.92,0,0,0,.88-.07m9.47-.22V45.35c0-.51,0-1.05,0-1.66s-.09-1.17-.14-1.78-.13-1.15-.17-1.63h.09L324,44l2.64,7.18h1.69L331,44l1.29-3.71h.1c-.05.48-.1,1-.15,1.63s-.12,1.2-.14,1.78-.08,1.15-.08,1.66v7.31h2.62v-16h-3.23l-2.76,7.81c-.17.51-.31,1-.48,1.54s-.35,1.07-.52,1.59h-.1c-.17-.52-.31-1.06-.48-1.59s-.37-1-.54-1.54l-2.83-7.81h-3.2v16Zm19.68-.17a9.15,9.15,0,0,0,1.71-1.15h.1l.2,1.32H347V45.55a6,6,0,0,0-1.1-3.86,4.21,4.21,0,0,0-3.37-1.32,7.32,7.32,0,0,0-2.67.47,11.68,11.68,0,0,0-2.27,1.1l1,1.88a10.72,10.72,0,0,1,1.66-.83,4.63,4.63,0,0,1,1.71-.35,1.94,1.94,0,0,1,1.71.69,3.09,3.09,0,0,1,.49,1.66,13.21,13.21,0,0,0-5.38,1.44,3.36,3.36,0,0,0-1.68,3A3.39,3.39,0,0,0,340.71,53a4.39,4.39,0,0,0,2-.46m-2.34-2.1a1.41,1.41,0,0,1-.49-1.18,1.83,1.83,0,0,1,.95-1.54,9,9,0,0,1,3.4-.92v2.68a7.55,7.55,0,0,1-1.27,1,2.65,2.65,0,0,1-1.35.36,2,2,0,0,1-1.24-.36m12.23,2.27V44.28A9.16,9.16,0,0,1,354,43.16a2.49,2.49,0,0,1,1.37-.37,1.66,1.66,0,0,1,1.44.61,3.77,3.77,0,0,1,.44,2.1v7.16H360V45.13a6.07,6.07,0,0,0-.88-3.51,3.2,3.2,0,0,0-2.81-1.25,4.39,4.39,0,0,0-2.18.56,9.09,9.09,0,0,0-1.75,1.35h-.1l-.2-1.61h-2.32v12Zm15.16-.17a8.83,8.83,0,0,0,1.71-1.15h.1l.2,1.32h2.32V45.55a6,6,0,0,0-1.1-3.86,4.21,4.21,0,0,0-3.37-1.32,7.3,7.3,0,0,0-2.66.47,11.5,11.5,0,0,0-2.28,1.1l1,1.88a10.72,10.72,0,0,1,1.66-.83,4.67,4.67,0,0,1,1.71-.35,1.93,1.93,0,0,1,1.71.69,3.09,3.09,0,0,1,.49,1.66,13.11,13.11,0,0,0-5.37,1.44,3.35,3.35,0,0,0-1.69,3A3.39,3.39,0,0,0,365.76,53a4.39,4.39,0,0,0,2-.46m-2.34-2.1a1.41,1.41,0,0,1-.49-1.18,1.83,1.83,0,0,1,.95-1.54,9,9,0,0,1,3.4-.92v2.68a7.17,7.17,0,0,1-1.27,1,2.64,2.64,0,0,1-1.34.36,2,2,0,0,1-1.25-.36m17,7a5.1,5.1,0,0,0,2.22-1.53,3.35,3.35,0,0,0,.78-2.13,2.48,2.48,0,0,0-1.1-2.27,6.45,6.45,0,0,0-3.3-.68H378.9a2.75,2.75,0,0,1-1.52-.3.91.91,0,0,1-.44-.8,1.05,1.05,0,0,1,.18-.66,2.22,2.22,0,0,1,.41-.49,3.71,3.71,0,0,0,.83.24,4.45,4.45,0,0,0,.81.08,5.3,5.3,0,0,0,2.29-.47,3.77,3.77,0,0,0,2.25-3.61,3.42,3.42,0,0,0-.2-1.17,2.61,2.61,0,0,0-.48-.86h2.19V40.67h-4.29c-.25-.08-.52-.15-.81-.22a6.19,6.19,0,0,0-.95-.08,5.61,5.61,0,0,0-2.32.49,4.23,4.23,0,0,0-1.76,1.47,4,4,0,0,0-.66,2.34,3.68,3.68,0,0,0,.49,1.88,4.28,4.28,0,0,0,1.07,1.3v.09a4.2,4.2,0,0,0-.9.93,2.26,2.26,0,0,0-.42,1.3,2.13,2.13,0,0,0,.32,1.22,2.46,2.46,0,0,0,.76.78v.09A3,3,0,0,0,374,54.83a2.38,2.38,0,0,0,.66,1.73,3.68,3.68,0,0,0,1.78,1A9,9,0,0,0,379,58a9.49,9.49,0,0,0,3.4-.57m-4.74-10.94a2.39,2.39,0,0,1-.61-1.78,2.36,2.36,0,0,1,.61-1.76,2,2,0,0,1,1.49-.61,2,2,0,0,1,1.49.61,2.48,2.48,0,0,1,.58,1.76,2.39,2.39,0,0,1-.61,1.78,2,2,0,0,1-2.95,0m-.47,9.21a1.35,1.35,0,0,1-.83-1.25,2,2,0,0,1,.93-1.58A6.35,6.35,0,0,0,379,53h1.63a4,4,0,0,1,1.59.24.94.94,0,0,1,.54.95,1.6,1.6,0,0,1-.91,1.35,4.27,4.27,0,0,1-2.34.58,4.54,4.54,0,0,1-2.25-.46"/><path class="cls-1" d="M393.87,52.58a8.59,8.59,0,0,0,1.9-.92l-.95-1.76a7.2,7.2,0,0,1-1.32.63,4.19,4.19,0,0,1-1.46.25,3.45,3.45,0,0,1-2.4-.88,3.87,3.87,0,0,1-1.14-2.47h7.61a5.9,5.9,0,0,0,.13-1.37,7.5,7.5,0,0,0-.57-3,4.41,4.41,0,0,0-1.66-2,5,5,0,0,0-2.73-.71,5.07,5.07,0,0,0-2.66.76,5.44,5.44,0,0,0-2.05,2.17,6.75,6.75,0,0,0-.81,3.37,6.91,6.91,0,0,0,.78,3.37,5.08,5.08,0,0,0,2.13,2.15,5.87,5.87,0,0,0,3,.76,6.56,6.56,0,0,0,2.2-.37M389.5,43.3a2.56,2.56,0,0,1,1.85-.75,2.19,2.19,0,0,1,1.83.78,3.48,3.48,0,0,1,.61,2.2h-5.32a3.49,3.49,0,0,1,1-2.23m11.62,9.36V44.28a3.74,3.74,0,0,1,2.51-1.49,1.67,1.67,0,0,1,1.42.61,3.77,3.77,0,0,1,.44,2.1v7.16h2.81V44.28a3.74,3.74,0,0,1,2.51-1.49,1.67,1.67,0,0,1,1.4.61,3.78,3.78,0,0,1,.43,2.1v7.16h2.84V45.13a5.77,5.77,0,0,0-.91-3.51,3.23,3.23,0,0,0-2.8-1.25,3.61,3.61,0,0,0-2.06.61,9.88,9.88,0,0,0-1.8,1.54,3.8,3.8,0,0,0-1.2-1.59,4.09,4.09,0,0,0-4.13,0,8.23,8.23,0,0,0-1.66,1.37h-.09l-.2-1.63h-2.32v12Zm24.49-.08a8.59,8.59,0,0,0,1.9-.92l-.95-1.76a7.2,7.2,0,0,1-1.32.63,4.19,4.19,0,0,1-1.46.25,3.46,3.46,0,0,1-2.4-.88,3.87,3.87,0,0,1-1.14-2.47h7.62a6.64,6.64,0,0,0,.12-1.37,7.69,7.69,0,0,0-.56-3,4.54,4.54,0,0,0-1.66-2,5.32,5.32,0,0,0-5.4.05,5.44,5.44,0,0,0-2.05,2.17,6.75,6.75,0,0,0-.81,3.37,6.91,6.91,0,0,0,.78,3.37,5.14,5.14,0,0,0,2.13,2.15,5.87,5.87,0,0,0,3,.76,6.56,6.56,0,0,0,2.2-.37m-4.37-9.28a2.59,2.59,0,0,1,1.85-.75,2.22,2.22,0,0,1,1.84.78,3.55,3.55,0,0,1,.61,2.2h-5.33a3.54,3.54,0,0,1,1-2.23m11.62,9.36V44.28a8.57,8.57,0,0,1,1.37-1.12,2.49,2.49,0,0,1,1.37-.37,1.66,1.66,0,0,1,1.44.61,3.77,3.77,0,0,1,.44,2.1v7.16h2.8V45.13a6.07,6.07,0,0,0-.87-3.51,3.2,3.2,0,0,0-2.81-1.25,4.39,4.39,0,0,0-2.18.56,9.09,9.09,0,0,0-1.75,1.35h-.1l-.2-1.61h-2.32v12Zm15.82.14a5.84,5.84,0,0,0,1.1-.29l-.49-2.08a2.83,2.83,0,0,1-.58.18,2.15,2.15,0,0,1-.66.09c-1.13,0-1.69-.71-1.69-2.1V42.89h3.06V40.67h-3.06V37.39H444l-.34,3.28-1.86.12v2.1h1.71V48.6a5.14,5.14,0,0,0,.88,3.13A3.34,3.34,0,0,0,447.34,53a5.79,5.79,0,0,0,1.34-.15"/><polygon class="cls-2" points="128.22 1.23 146.14 1.23 160.75 24.92 175.35 1.23 193.28 1.23 193.28 62.44 176.4 62.44 176.4 27.28 160.75 51.24 160.4 51.24 144.83 27.37 144.83 62.44 128.22 62.44 128.22 1.23"/><path class="cls-2" d="M33,0C20.6,0,10.24,6.14,4.58,15.32H32.46l.36,0c9.35,0,15.65,7.61,15.65,16.53V32c0,8.83-6.21,16.35-15.48,16.35H4.47c5.59,9.19,15.9,15.3,28.35,15.3,18.89,0,33.05-14.25,33.05-31.83v-.17C65.87,14.08,51.88,0,33,0"/><path class="cls-3" d="M17.38,33.77H0A31.6,31.6,0,0,0,2.49,44.49H22.75a16.67,16.67,0,0,1-5.37-10.72"/><path class="cls-4" d="M17.35,29.9a16.54,16.54,0,0,1,5.21-10.73h-20A31.5,31.5,0,0,0,0,29.9Z"/><path class="cls-2" d="M97.44,1.23H71.12V62.44h17v-47h8c6,0,9.79,2.71,9.79,8v.17c0,4.81-3.76,8.05-9.71,8.05H92V45h4.61c15.13,0,26.24-7.61,26.24-22.12v-.18c0-13.47-10-21.42-25.36-21.42"/></g></g></svg>